<?xml version="1.0" encoding="utf-8"?>
<!-- Generator: Adobe Illustrator 28.1.0, SVG Export Plug-In . SVG Version: 6.00 Build 0)  -->
<svg version="1.1" id="Layer_1" xmlns="http://www.w3.org/2000/svg" xmlns:xlink="http://www.w3.org/1999/xlink" x="0px" y="0px"
	 viewBox="0 0 512 512" style="enable-background:new 0 0 512 512;" xml:space="preserve">
<style type="text/css">
	.st0{fill:none;stroke:#000000;stroke-width:10;stroke-linecap:round;stroke-linejoin:round;stroke-miterlimit:10;}
</style>
<path class="st0" d="M196,391v15c0,24.8-20.2,45-45,45"/>
<path class="st0" d="M316,391v15c0,24.8,20.2,45,45,45"/>
<path class="st0" d="M474.5,31h-437c-16.5,0-30,13.5-30,30v300c0,16.5,13.5,30,30,30h437c16.5,0,30-13.5,30-30V61
	C504.5,44.5,491,31,474.5,31z"/>
<path class="st0" d="M504.5,331H7.5"/>
<path class="st0" d="M241,451H82.5c-16.5,0-30,13.5-30,30h407c0-16.5-13.5-30-30-30H271"/>
</svg>
