<?xml version="1.0" encoding="utf-8"?>
<!-- Generator: Adobe Illustrator 28.1.0, SVG Export Plug-In . SVG Version: 6.00 Build 0)  -->
<svg version="1.1" id="Layer_1" xmlns="http://www.w3.org/2000/svg" xmlns:xlink="http://www.w3.org/1999/xlink" x="0px" y="0px"
	 viewBox="0 0 100 100" style="enable-background:new 0 0 100 100;" xml:space="preserve">
<path d="M49.74,27.44c1.55,0.83,3.25,1.24,4.96,1.24c1.04,0,2.09-0.16,3.11-0.47c2.71-0.83,4.93-2.66,6.25-5.16
	c1.33-2.5,1.6-5.36,0.78-8.07c-0.83-2.71-2.66-4.93-5.16-6.25c-0.17-0.09-0.63-0.27-1.18,0.07c-1.16,0.73-3.87,5.6-5.38,8.44
	c-1.51,2.84-4.03,7.81-3.99,9.18C49.16,27.06,49.57,27.35,49.74,27.44z M57.72,13.17c1.12,0.74,1.94,1.83,2.34,3.13
	c0.45,1.48,0.3,3.04-0.42,4.4c-0.72,1.36-1.94,2.36-3.42,2.81c-1.3,0.4-2.67,0.33-3.9-0.18C53.7,20.35,56.02,15.98,57.72,13.17z
	 M51.51,25.17c0.96,0.4,1.97,0.61,3,0.61c0.77,0,1.54-0.11,2.29-0.35c1.99-0.61,3.63-1.96,4.6-3.79c0.98-1.83,1.18-3.94,0.57-5.93
	c-0.54-1.76-1.66-3.24-3.18-4.24c0.18-0.26,0.34-0.49,0.48-0.65c1.75,1.1,3.03,2.76,3.64,4.76c0.67,2.19,0.45,4.51-0.63,6.54
	c-1.08,2.02-2.88,3.51-5.07,4.18c-1.99,0.61-4.09,0.48-5.98-0.36C51.3,25.73,51.4,25.47,51.51,25.17z M55.07,22.9
	c-0.55,0-1-0.45-1-1s0.45-1,1-1h0c0.55,0,1,0.45,1,1S55.62,22.9,55.07,22.9z M59.17,19.92c0,0.55-0.45,1-1,1s-1-0.45-1-1
	c0-0.55,0.45-1,1-1h0C58.72,18.92,59.17,19.37,59.17,19.92z M57.06,16.25c0-0.55,0.45-1,1-1h0c0.55,0,1,0.45,1,1c0,0.55-0.45,1-1,1
	S57.06,16.8,57.06,16.25z M96.34,35.06l-0.27-1.23c-0.46-2.13-2.57-3.48-4.7-3.02L74,34.59c-2.13,0.46-3.48,2.57-3.02,4.7l0.27,1.23
	c0.4,1.84,2.04,3.11,3.86,3.11c0.28,0,0.56-0.03,0.84-0.09l17.38-3.78c1.03-0.22,1.91-0.84,2.48-1.72S96.57,36.09,96.34,35.06z
	 M94.12,36.94c-0.28,0.44-0.71,0.74-1.22,0.85l-17.38,3.78c-1.04,0.23-2.08-0.44-2.31-1.48l-0.27-1.23
	c-0.23-1.04,0.44-2.08,1.48-2.31l17.38-3.78c0.14-0.03,0.28-0.05,0.42-0.05c0.37,0,0.73,0.1,1.04,0.31
	c0.44,0.28,0.74,0.71,0.85,1.22l0.27,1.23C94.49,35.99,94.4,36.51,94.12,36.94z M70.28,68.44H54.38v-1.6c0-0.55-0.45-1-1-1
	s-1,0.45-1,1v1.6h-4.68V62.9c0-0.55-0.45-1-1-1c-0.55,0-1,0.45-1,1v5.54H41v-4.02c0-0.55-0.45-1-1-1s-1,0.45-1,1v4.02h-4.68v-7.11
	c0-0.55-0.45-1-1-1s-1,0.45-1,1v7.11h-1.61c0,0-0.01,0-0.01,0c0,0-0.01,0-0.01,0H16.41c-2.07,0-3.75,1.68-3.75,3.75v9.22
	c0,2.07,1.68,3.75,3.75,3.75h5.19v2.91c0,1.83,1.49,3.33,3.33,3.33h36.84c1.83,0,3.33-1.49,3.33-3.33v-2.91h5.19
	c2.07,0,3.75-1.68,3.75-3.75v-9.22C74.03,70.12,72.34,68.44,70.28,68.44z M16.41,83.15c-0.96,0-1.74-0.78-1.74-1.74v-9.22
	c0-0.96,0.78-1.74,1.74-1.74h13.26v12.71H22.6H16.41z M63.08,88.07c0,0.73-0.59,1.32-1.32,1.32H24.92c-0.73,0-1.32-0.59-1.32-1.32
	v-2.91h39.48V88.07z M72.02,81.41c0,0.96-0.78,1.74-1.74,1.74h-6.19h-32.4V70.44h38.6c0.96,0,1.74,0.78,1.74,1.74V81.41z
	 M28.27,19.15c2.62,0,4.75-2.13,4.75-4.75s-2.13-4.75-4.75-4.75s-4.75,2.13-4.75,4.75S25.65,19.15,28.27,19.15z M28.27,11.65
	c1.51,0,2.74,1.23,2.74,2.74c0,1.51-1.23,2.74-2.74,2.74c-1.51,0-2.74-1.23-2.74-2.74C25.52,12.88,26.75,11.65,28.27,11.65z
	 M17.27,57.12c1.78,1.14,3.8,1.73,5.86,1.73c0.78,0,1.56-0.08,2.34-0.25l34.59-7.53c5.86-1.28,9.59-7.08,8.31-12.94l-0.54-2.5
	c-0.17-0.8-0.65-1.48-1.34-1.92c-0.69-0.44-1.51-0.59-2.3-0.42L14.31,44.14c-0.8,0.17-1.48,0.65-1.92,1.34
	c-0.44,0.69-0.59,1.51-0.42,2.3l0.54,2.5C13.14,53.12,14.82,55.55,17.27,57.12z M13.94,47.36c-0.06-0.27-0.01-0.56,0.14-0.79
	c0.15-0.24,0.39-0.4,0.66-0.46l49.86-10.86c0.08-0.02,0.15-0.02,0.23-0.02c0.2,0,0.39,0.06,0.57,0.17c0.24,0.15,0.4,0.39,0.46,0.66
	l0.54,2.5c1.04,4.78-2,9.51-6.78,10.55l-34.59,7.53c-2.31,0.5-4.69,0.08-6.68-1.2c-1.99-1.28-3.37-3.26-3.87-5.57L13.94,47.36z
	 M39.94,34.19c2.62,0,4.75-2.13,4.75-4.75s-2.13-4.75-4.75-4.75c-2.62,0-4.75,2.13-4.75,4.75S37.32,34.19,39.94,34.19z M39.94,26.7
	c1.51,0,2.74,1.23,2.74,2.74c0,1.51-1.23,2.74-2.74,2.74c-1.51,0-2.74-1.23-2.74-2.74C37.2,27.93,38.43,26.7,39.94,26.7z
	 M53.38,58.54c0.55,0,1,0.45,1,1v2.7c0,0.55-0.45,1-1,1s-1-0.45-1-1v-2.7C52.37,58.99,52.82,58.54,53.38,58.54z M17.61,51.19
	c-0.28-0.48-0.12-1.09,0.36-1.37c0.48-0.28,1.09-0.12,1.37,0.36c0.79,1.36,2.25,2.2,3.8,2.2c0.31,0,0.63-0.03,0.95-0.1l2.86-0.62
	c0.54-0.12,1.08,0.23,1.19,0.77c0.12,0.54-0.23,1.08-0.77,1.19l-2.86,0.62c-0.45,0.1-0.92,0.15-1.37,0.15
	C20.88,54.38,18.76,53.16,17.61,51.19z M40,60.07c0.27,0,0.52,0.11,0.71,0.29c0.19,0.19,0.29,0.45,0.29,0.71
	c0,0.26-0.11,0.52-0.29,0.71c-0.19,0.19-0.44,0.29-0.71,0.29c-0.27,0-0.52-0.11-0.71-0.29c-0.19-0.19-0.29-0.45-0.29-0.71
	c0-0.27,0.11-0.52,0.29-0.71C39.47,60.18,39.73,60.07,40,60.07z M57.59,71.91c-2.7,0-4.89,2.19-4.89,4.89c0,2.7,2.19,4.89,4.89,4.89
	c2.7,0,4.89-2.19,4.89-4.89C62.48,74.1,60.29,71.91,57.59,71.91z M57.59,79.68c-1.59,0-2.88-1.29-2.88-2.88
	c0-1.59,1.29-2.88,2.88-2.88s2.88,1.29,2.88,2.88C60.48,78.39,59.18,79.68,57.59,79.68z M16.09,36.07l4.31,3.22
	c0.62,0.47,1.37,0.71,2.14,0.71c0.32,0,0.65-0.04,0.98-0.13c1.23-0.33,2.29-1.27,2.82-2.52l1.24-2.9c0,0,0,0,0,0
	c0.53-1.25,0.48-2.66-0.14-3.78c-0.55-0.99-1.48-1.66-2.57-1.84c-1.77-0.29-3.54-0.59-5.31-0.88c0.79-3.67,0.16-6.22-1.78-7.05
	c-2.3-0.98-4.86-1.08-7.22-0.29c-2.77,0.93-5.01,2.99-6.15,5.68c-1.07,2.5-1.1,5.27-0.08,7.8c1.02,2.53,2.96,4.5,5.46,5.57
	c0.38,0.16,0.78,0.24,1.19,0.24C12.6,39.9,14.4,38.57,16.09,36.07z M24.53,30.81c0.49,0.08,0.89,0.38,1.14,0.83
	c0.32,0.58,0.34,1.34,0.05,2.02l-1.24,2.9c-0.29,0.68-0.85,1.19-1.49,1.37c-0.5,0.14-1,0.05-1.39-0.25l-5.18-3.87
	c-0.01-0.01-0.03-0.02-0.04-0.03l-0.12-0.09c-0.4-0.3-0.8-0.6-1.2-0.9l-0.01-0.01c0,0,0,0,0,0c0,0,0,0,0,0l-1.37-1.02
	c-0.01-0.01-0.02-0.01-0.03-0.02c-0.46-0.32-0.6-1.03-0.33-1.65c0.27-0.62,0.88-1.01,1.42-0.9c0.01,0,0.02,0,0.04,0.01l3.38,0.56
	C20.28,30.11,22.4,30.46,24.53,30.81z M10.55,37.81c-2.01-0.86-3.57-2.45-4.38-4.47c-0.82-2.03-0.79-4.25,0.06-6.26
	c0.92-2.15,2.72-3.82,4.94-4.56c1.9-0.63,3.95-0.55,5.8,0.24c0.82,0.35,1.09,1.86,0.76,3.95c-0.16-1.5-0.95-2.09-1.46-2.3
	c-0.64-0.27-1.31-0.44-1.99-0.49c-2.75-0.22-5.32,1.33-6.4,3.87c-0.56,1.32-0.67,2.76-0.29,4.15c0.12,0.45,0.53,0.74,0.97,0.74
	c0.09,0,0.17-0.01,0.26-0.03c0.54-0.14,0.85-0.69,0.71-1.23c-0.26-0.96-0.19-1.94,0.2-2.85c0.74-1.74,2.5-2.81,4.39-2.65
	c0.46,0.04,0.92,0.15,1.36,0.34c0.14,0.06,0.28,0.42,0.27,1.08l-0.64-0.11c-1.47-0.29-3,0.59-3.64,2.09
	c-0.64,1.5-0.21,3.21,1.02,4.07l0.52,0.39c-0.46,0.46-0.82,0.61-0.96,0.55c-0.41-0.17-0.79-0.41-1.12-0.69
	c-0.42-0.36-1.06-0.31-1.41,0.11c-0.36,0.42-0.31,1.06,0.11,1.41c0.49,0.42,1.04,0.76,1.64,1.01c0.22,0.09,0.51,0.18,0.86,0.18
	c0.5,0,1.12-0.17,1.81-0.71C12.65,37.31,11.37,38.16,10.55,37.81z"/>
</svg>
