<?xml version="1.0" encoding="utf-8"?>
<!-- Generator: Adobe Illustrator 28.1.0, SVG Export Plug-In . SVG Version: 6.00 Build 0)  -->
<svg version="1.1" id="Layer_1" xmlns="http://www.w3.org/2000/svg" xmlns:xlink="http://www.w3.org/1999/xlink" x="0px" y="0px"
	 viewBox="0 0 512 512" style="enable-background:new 0 0 512 512;" xml:space="preserve">
<style type="text/css">
	.st0{fill:none;stroke:#000000;stroke-width:10;stroke-linecap:round;stroke-linejoin:round;stroke-miterlimit:10;}
</style>
<path class="st0" d="M457.4,411.9l-87.7-197.6l-77,77l122.1,165.9c4.7,6.4,14,7.1,19.6,1.5l17.6-17.6
	C459.6,433.5,461.8,421.9,457.4,411.9z"/>
<path class="st0" d="M100.1,54.6l197.6,87.7l-77,77L54.8,97.2c-6.4-4.7-7.1-14-1.5-19.6L70.9,60C78.5,52.4,90.1,50.2,100.1,54.6z"/>
<path class="st0" d="M438.2,433.9L316.1,268l-23.4,23.4l122.1,165.9c4.7,6.4,14,7.1,19.6,1.5l17.6-17.6c1.1-1.1,2.2-2.4,3.1-3.7
	C449.5,440.6,442.2,439.3,438.2,433.9z"/>
<path class="st0" d="M206.4,469.3l-3.8-92.4c-5.9,4.2-12,8.1-18.3,11.8l-52.4,30.3l22.8,70.7c3.4,10.6,14.5,16.9,25.3,14.3
	C196,500.2,207.1,485.6,206.4,469.3z"/>
<path class="st0" d="M123.4,327.7c3.6-6.3,7.6-12.4,11.8-18.3l-92.4-3.8C26.4,304.9,11.8,316,8.1,332l0,0
	c-2.5,10.9,3.7,21.9,14.3,25.3l70.7,22.8L123.4,327.7z"/>
<path class="st0" d="M157.2,354.8L157.2,354.8c-6.3-6.3-16.5-6.3-22.8,0l-59.5,59.5c-6.3,6.3-6.3,16.5,0,22.8
	c6.3,6.3,16.5,6.3,22.8,0l59.5-59.5C163.5,371.3,163.5,361.1,157.2,354.8z"/>
<path class="st0" d="M467.3,80.7l-0.6-3.3c-3.1-16.3-15.8-29-32.1-32.1l-3.3-0.6"/>
<path class="st0" d="M418.4,324.1l39.2-39.2c5.4-5.4,5.4-14.3,0-19.7l-24-24c-5.4-5.4-14.3-5.4-19.7,0l-22.4,22.4L418.4,324.1z"/>
<path class="st0" d="M248.4,120.4l22.4-22.4c5.4-5.4,5.4-14.3,0-19.7l-24-24c-5.4-5.4-14.2-5.4-19.7,0l-39.2,39.2L248.4,120.4z"/>
<path class="st0" d="M435.8,148.2l49.5-49.5c12.5-12.5,19.7-29.6,19.2-47.3C504.1,40.5,501,29,492,20c-9-9-20.6-12.1-31.5-12.5
	c-17.7-0.6-34.8,6.6-47.3,19.2L160.4,279.5c-14.4,14.4-26.9,30.6-37,48.2l-40.2,69.5c-2.1,3.6-3.2,7.7-3.1,11.9l54.3-54.3
	c6.3-6.3,16.5-6.3,22.8,0c6.3,6.3,6.3,16.5,0,22.8l-54.3,54.3c4.2,0.1,8.3-1,11.9-3.1l69.5-40.2c17.6-10.2,33.8-22.6,48.2-37
	L411.1,173"/>
<path class="st0" d="M167.4,139.5L78.1,73.8c-5.4-4-6.7-11.3-3.5-16.8c-1.3,0.9-2.6,1.9-3.7,3.1L53.3,77.6
	c-5.6,5.6-4.9,14.9,1.5,19.6l165.9,122.1l23.4-23.4l-48.2-35.5"/>
</svg>
