<?xml version="1.0" encoding="utf-8"?>
<!-- Generator: Adobe Illustrator 27.9.0, SVG Export Plug-In . SVG Version: 6.00 Build 0)  -->
<svg version="1.1" id="Layer_1" xmlns="http://www.w3.org/2000/svg" xmlns:xlink="http://www.w3.org/1999/xlink" x="0px" y="0px"
	 viewBox="0 0 100 100" style="enable-background:new 0 0 100 100;" xml:space="preserve">
<path d="M39.85,52.15C39.85,52.15,39.85,52.15,39.85,52.15c-0.59,0-1.06-0.5-1.06-1.11l0-0.53c-0.97-0.21-1.86-0.71-2.58-1.46
	c-0.97-1.01-1.49-2.35-1.49-3.78c0-0.61,0.48-1.1,1.06-1.1c0,0,0,0,0,0c0.58,0,1.06,0.5,1.05,1.11c0,0.84,0.31,1.63,0.87,2.22
	c0.32,0.33,0.69,0.58,1.1,0.74c0.09-0.52,0.52-0.91,1.04-0.91c0,0,0,0,0,0c0.52,0,0.95,0.39,1.04,0.9c0.4-0.15,0.76-0.4,1.07-0.72
	c0.57-0.59,0.89-1.38,0.89-2.21c0-0.84-0.31-1.63-0.87-2.22s-1.32-0.92-2.13-0.93c-0.58,0-1.06-0.5-1.05-1.11
	c0-0.61,0.48-1.1,1.06-1.1c0,0,0,0,0,0c1.37,0,2.65,0.56,3.62,1.58c0.97,1.01,1.49,2.35,1.49,3.78c0,1.43-0.54,2.76-1.51,3.77
	c-0.71,0.74-1.6,1.23-2.56,1.44l0,0.53C40.91,51.66,40.43,52.15,39.85,52.15z M39.85,55.31c-6.75,0-12.24-5.72-12.24-12.75
	s5.49-12.75,12.24-12.75s12.24,5.72,12.24,12.75S46.6,55.31,39.85,55.31z M39.85,53.1c5.58,0,10.12-4.73,10.12-10.54
	s-4.54-10.54-10.12-10.54s-10.12,4.73-10.12,10.54S34.27,53.1,39.85,53.1z M39.85,45.26c0.58,0,1.06-0.49,1.06-1.1
	c0-0.61-0.47-1.1-1.06-1.1c-1.66,0-3.01-1.41-3.01-3.13c0-1.34,0.81-2.49,1.95-2.94c0.09,0.51,0.52,0.9,1.04,0.9
	c0.52,0,0.95-0.39,1.04-0.91c1.16,0.44,1.98,1.59,1.98,2.95c0,0.61,0.47,1.1,1.06,1.1s1.06-0.49,1.06-1.1
	c0-2.57-1.76-4.73-4.08-5.23v-0.53c0-0.61-0.47-1.1-1.06-1.1c-0.58,0-1.06,0.49-1.06,1.1v0.53c-2.31,0.52-4.05,2.66-4.05,5.22
	C34.72,42.86,37.02,45.26,39.85,45.26z M39.85,66.04c-12.43,0-22.55-10.54-22.55-23.48s10.12-23.48,22.55-23.48
	c12.43,0,22.55,10.54,22.55,23.48S52.29,66.04,39.85,66.04z M39.85,63.84c11.27,0,20.43-9.55,20.43-21.28
	c0-11.73-9.17-21.28-20.43-21.28s-20.43,9.55-20.43,21.28C19.42,54.29,28.59,63.84,39.85,63.84z M40.91,61.43v-3.31
	c0-0.61-0.47-1.1-1.06-1.1c-0.58,0-1.06,0.49-1.06,1.1v3.31c0,0.61,0.47,1.1,1.06,1.1C40.43,62.53,40.91,62.04,40.91,61.43z
	 M24.92,41.38l-3.17-0.02c0,0,0,0-0.01,0c-0.58,0-1.06,0.49-1.06,1.1c0,0.61,0.47,1.1,1.05,1.11l3.17,0.02c0,0,0,0,0.01,0
	c0.58,0,1.06-0.49,1.06-1.1C25.97,41.87,25.5,41.38,24.92,41.38z M39.85,28.1c0.58,0,1.06-0.49,1.06-1.1v-3.31
	c0-0.61-0.47-1.1-1.06-1.1c-0.58,0-1.06,0.49-1.06,1.1V27C38.8,27.61,39.27,28.1,39.85,28.1z M54.79,43.66h3.17
	c0.58,0,1.06-0.49,1.06-1.1c0-0.61-0.47-1.1-1.06-1.1h-3.17c-0.58,0-1.06,0.49-1.06,1.1C53.74,43.17,54.21,43.66,54.79,43.66z
	 M22.21,72.1c0.06,0.79-0.18,1.56-0.68,2.16l-6.1,7.41c-1.17,1.42-2.83,2.15-4.5,2.15c-1.37,0-2.74-0.49-3.85-1.48
	c-2.48-2.22-2.77-6.12-0.64-8.7l6.1-7.41c0.5-0.6,1.19-0.97,1.94-1.03c0.76-0.06,1.49,0.19,2.07,0.71l4.67,4.18
	C21.8,70.6,22.15,71.31,22.21,72.1z M19.85,71.75l-4.67-4.18c-0.15-0.13-0.34-0.2-0.53-0.18c-0.19,0.02-0.37,0.11-0.5,0.26
	l-6.1,7.41c-1.37,1.66-1.18,4.17,0.41,5.59c1.59,1.42,4,1.23,5.37-0.43l6.1-7.41C20.19,72.51,20.15,72.03,19.85,71.75z M88.66,60.47
	c1.18,0,2.11,1.11,2.11,2.52v27.58c0,1.41-0.93,2.52-2.11,2.52h-2.13c-1.18,0-2.11-1.11-2.11-2.52V62.99c0-1.41,0.93-2.52,2.11-2.52
	H88.66z M88.65,62.99c0-0.15-0.04-0.26-0.08-0.32h-1.96c-0.03,0.05-0.08,0.16-0.08,0.32v27.58c0,0.15,0.04,0.26,0.08,0.32h1.96
	c0.03-0.05,0.08-0.16,0.08-0.32V62.99z M65.95,71.53v19.04c0,1.41-0.93,2.52-2.11,2.52h-2.13c-1.18,0-2.11-1.11-2.11-2.52V71.53
	c0-1.41,0.93-2.52,2.11-2.52h2.13C65.02,69,65.95,70.11,65.95,71.53z M63.83,71.53c0-0.15-0.04-0.26-0.08-0.32h-1.96
	c-0.03,0.05-0.08,0.16-0.08,0.32v19.04c0,0.15,0.04,0.26,0.08,0.32h1.96c0.03-0.05,0.08-0.16,0.08-0.32V71.53z M57.65,79.07v11.5
	c0,1.41-0.93,2.52-2.11,2.52h-2.13c-1.18,0-2.11-1.11-2.11-2.52v-11.5c0-1.41,0.93-2.52,2.11-2.52h2.13
	C56.72,76.55,57.65,77.66,57.65,79.07z M55.53,79.07c0-0.15-0.04-0.26-0.08-0.32h-1.96c-0.03,0.05-0.08,0.16-0.08,0.32v11.5
	c0,0.15,0.04,0.26,0.08,0.32h1.96c0.03-0.05,0.08-0.16,0.08-0.32V79.07z M74.08,74.36v16.21c0,1.41-0.93,2.52-2.11,2.52h-2.13
	c-1.18,0-2.11-1.11-2.11-2.52V74.36c0-1.41,0.93-2.52,2.11-2.52h2.13C73.16,71.84,74.08,72.95,74.08,74.36z M71.97,74.36
	c0-0.15-0.04-0.26-0.08-0.32h-1.96c-0.03,0.05-0.08,0.16-0.08,0.32v16.21c0,0.15,0.04,0.26,0.08,0.32h1.96
	c0.03-0.05,0.08-0.16,0.08-0.32V74.36z M71.84,15.14H54.48c-0.58,0-1.06,0.49-1.06,1.1c0,0.61,0.47,1.1,1.06,1.1h17.36
	c0.58,0,1.06-0.49,1.06-1.1C72.9,15.63,72.42,15.14,71.84,15.14z M39.84,69.39c-4.92,0-9.67-1.44-13.8-4.18l-2.35,2.86
	c-0.34,0.42-0.82,0.67-1.35,0.71c-0.52,0.04-1.03-0.13-1.43-0.49l-2.61-2.33c-0.82-0.74-0.92-2.04-0.21-2.89l2.36-2.86
	c-4.11-4.9-6.37-11.12-6.37-17.64c0-14.79,11.56-26.83,25.76-26.83S65.6,27.76,65.6,42.56S54.04,69.39,39.84,69.39z M26.44,62.84
	c3.95,2.84,8.59,4.34,13.39,4.34c13.04,0,23.65-11.05,23.65-24.63c0-13.58-10.61-24.63-23.65-24.63S16.19,28.98,16.19,42.56
	c0,6.29,2.29,12.28,6.43,16.87c0.39,0.43,0.38,1.1,0,1.52l-2.83,3.44l2.39,2.13L25,63.09c0.15-0.21,0.37-0.36,0.62-0.42
	c0.08-0.02,0.15-0.03,0.23-0.03C26.06,62.65,26.27,62.72,26.44,62.84z M89.72,2.76H40.85c-2.92,0-5.29,2.47-5.29,5.51v3.26
	c0,0.61,0.47,1.1,1.06,1.1c0.58,0,1.06-0.49,1.06-1.1V8.28c0-1.82,1.42-3.31,3.17-3.31h48.87c1.75,0,3.17,1.48,3.17,3.31v83.45
	c0,1.82-1.42,3.31-3.17,3.31H40.85c-1.75,0-3.17-1.48-3.17-3.31V73.58c0-0.61-0.47-1.1-1.06-1.1c-0.58,0-1.06,0.49-1.06,1.1v18.15
	c0,3.04,2.37,5.51,5.29,5.51h48.87c2.92,0,5.29-2.47,5.29-5.51V8.28C95.01,5.24,92.63,2.76,89.72,2.76z M82.25,68.68v21.89
	c0,1.41-0.93,2.52-2.11,2.52h-2.13c-1.18,0-2.11-1.11-2.11-2.52V68.68c0-1.41,0.93-2.52,2.11-2.52h2.13
	C81.33,66.15,82.25,67.26,82.25,68.68z M80.14,68.68c0-0.15-0.04-0.26-0.08-0.32H78.1c-0.03,0.05-0.08,0.16-0.08,0.32v21.89
	c0,0.15,0.04,0.26,0.08,0.32h1.96c0.03-0.05,0.08-0.16,0.08-0.32V68.68z M76.22,24.18h12.95c0.58,0,1.06-0.49,1.06-1.1
	s-0.47-1.1-1.06-1.1H76.22c-0.58,0-1.06,0.49-1.06,1.1S75.64,24.18,76.22,24.18z M76.22,17.34h12.95c0.58,0,1.06-0.49,1.06-1.1
	c0-0.61-0.47-1.1-1.06-1.1H76.22c-0.58,0-1.06,0.49-1.06,1.1C75.16,16.85,75.64,17.34,76.22,17.34z M76.22,39.83h12.95
	c0.58,0,1.06-0.49,1.06-1.1c0-0.61-0.47-1.1-1.06-1.1H76.22c-0.58,0-1.06,0.49-1.06,1.1C75.16,39.33,75.64,39.83,76.22,39.83z
	 M76.22,46.66h12.95c0.58,0,1.06-0.49,1.06-1.1c0-0.61-0.47-1.1-1.06-1.1H76.22c-0.58,0-1.06,0.49-1.06,1.1
	C75.16,46.17,75.64,46.66,76.22,46.66z M73.78,63.68l1.8-1.53c-0.19-0.48-0.3-1-0.3-1.55c0-2.18,1.7-3.96,3.8-3.96
	c0.87,0,1.67,0.31,2.32,0.82c0.71-0.51,1.44-1.01,2.18-1.5c-0.08-0.32-0.12-0.65-0.12-0.99c0-2.18,1.7-3.96,3.8-3.96
	s3.8,1.78,3.8,3.96s-1.7,3.96-3.8,3.96c-0.99,0-1.9-0.4-2.58-1.05l-2.01,1.39c0.14,0.42,0.22,0.87,0.22,1.33
	c0,2.18-1.7,3.96-3.8,3.96c-0.79,0-1.53-0.26-2.14-0.69c-0.11,0.09-0.21,0.19-0.31,0.28c-0.73,0.66-1.35,1.21-1.94,1.67
	c0.02,0.15,0.03,0.3,0.03,0.46c0,2.18-1.7,3.96-3.8,3.96c-2.04,0-3.72-1.69-3.8-3.8c-0.37-0.21-0.72-0.44-1.07-0.66
	c-0.04-0.03-0.09-0.06-0.13-0.09c-0.69,1.04-1.83,1.72-3.14,1.72c-1.23,0-2.32-0.61-3.02-1.55c-0.79,0.64-1.6,1.51-2.4,2.6
	c0.57,0.69,0.92,1.59,0.92,2.57c0,2.18-1.7,3.96-3.8,3.96c-2.1,0-3.8-1.78-3.8-3.96s1.7-3.96,3.8-3.96c0.39,0,0.76,0.06,1.11,0.17
	c1.11-1.53,2.25-2.71,3.4-3.52c-0.01-0.09-0.01-0.18-0.01-0.27c0-2.18,1.7-3.96,3.8-3.96s3.8,1.78,3.8,3.96c0,0.02,0,0.05,0,0.07
	c0.06,0.04,0.12,0.08,0.17,0.11l0.93,0.55c0.67-1.12,1.87-1.87,3.23-1.87C72.05,62.31,73.08,62.84,73.78,63.68z M56.16,71.02
	c0-0.61-0.3-1.16-0.76-1.47c-0.02-0.01-0.03-0.02-0.04-0.03c-0.26-0.16-0.55-0.26-0.87-0.26c-0.93,0-1.68,0.79-1.68,1.75
	s0.76,1.75,1.68,1.75S56.16,71.99,56.16,71.02z M64.46,63.45c0-0.97-0.76-1.75-1.68-1.75s-1.68,0.79-1.68,1.75
	c0,0.17,0.02,0.33,0.07,0.49c0,0.01,0,0.01,0.01,0.02c0.21,0.72,0.85,1.24,1.61,1.24C63.7,65.2,64.46,64.42,64.46,63.45z
	 M72.59,66.27c0-0.2-0.03-0.39-0.09-0.56c0-0.01-0.01-0.02-0.01-0.02c-0.23-0.68-0.86-1.17-1.59-1.17c-0.82,0-1.5,0.61-1.65,1.41
	c0,0.02-0.01,0.05-0.01,0.07c-0.01,0.09-0.02,0.18-0.02,0.27c0,0.97,0.76,1.75,1.68,1.75C71.84,68.03,72.59,67.24,72.59,66.27z
	 M85.56,54.98c0,0.97,0.76,1.75,1.68,1.75c0.93,0,1.68-0.79,1.68-1.75s-0.76-1.75-1.68-1.75C86.32,53.22,85.56,54.01,85.56,54.98z
	 M77.39,60.6c0,0.97,0.76,1.75,1.68,1.75c0.93,0,1.68-0.79,1.68-1.75s-0.76-1.75-1.68-1.75C78.15,58.85,77.39,59.63,77.39,60.6z"/>
</svg>
