<?xml version="1.0" encoding="utf-8"?>
<!-- Generator: Adobe Illustrator 28.1.0, SVG Export Plug-In . SVG Version: 6.00 Build 0)  -->
<svg version="1.1" id="Layer_1" xmlns="http://www.w3.org/2000/svg" xmlns:xlink="http://www.w3.org/1999/xlink" x="0px" y="0px"
	 viewBox="0 0 512 512" style="enable-background:new 0 0 512 512;" xml:space="preserve">
<style type="text/css">
	.st0{fill:none;stroke:#000000;stroke-width:10;stroke-linecap:round;stroke-linejoin:round;stroke-miterlimit:10;}
</style>
<path class="st0" d="M173.4,414h165.1"/>
<path class="st0" d="M486,60.2H26c-10.2,0-18.5-8.3-18.5-18.5S15.8,23.2,26,23.2H486c10.2,0,18.5,8.3,18.5,18.5S496.2,60.2,486,60.2
	z"/>
<path class="st0" d="M41.8,141.5v175.2c0,13.4,10.9,24.3,24.3,24.3h379.7c13.4,0,24.3-10.9,24.3-24.3V60.2"/>
<path class="st0" d="M41.8,60.2v45.8"/>
<path class="st0" d="M384.6,418l-35.3-77.1"/>
<path class="st0" d="M305,340.9L367.4,477c4.6,10.1,16.5,14.5,26.6,9.9c10.1-4.6,14.5-16.5,9.9-26.6l-4.7-10.2"/>
<path class="st0" d="M162.8,340.9L108,460.3c-4.6,10.1-0.2,22,9.9,26.6c10.1,4.6,22,0.2,26.6-9.9l62.4-136.1"/>
</svg>
