<?xml version="1.0" encoding="utf-8"?>
<!-- Generator: Adobe Illustrator 28.1.0, SVG Export Plug-In . SVG Version: 6.00 Build 0)  -->
<svg version="1.1" id="Layer_1" xmlns="http://www.w3.org/2000/svg" xmlns:xlink="http://www.w3.org/1999/xlink" x="0px" y="0px"
	 viewBox="0 0 100 100" style="enable-background:new 0 0 100 100;" xml:space="preserve">
<path d="M88.6,43.1c0.5,1.8,2.1,3.1,4.1,3.1c2.3,0,4.2-1.9,4.2-4.2c0-2.3-1.9-4.2-4.2-4.2c-1.9,0-3.6,1.3-4.1,3.1H72.1v-3.9h5
	c0.6,0,1.1-0.5,1.1-1.1s-0.5-1.1-1.1-1.1h-5v-3.5c0-1.4-1.1-2.5-2.5-2.5h-3.7v-4.1H70c0.5,1.7,2.1,3,4,3c2.3,0,4.2-1.9,4.2-4.2
	s-1.9-4.2-4.2-4.2c-1.9,0-3.6,1.3-4.1,3.1h-5.2c-0.6,0-1.1,0.5-1.1,1.1v5.2h-3.9V18.5h5.1c0.6,0,1.1-0.5,1.1-1.1v-5.3
	c1.7-0.5,3-2.1,3-4c0-2.3-1.9-4.2-4.2-4.2c-2.3,0-4.2,1.9-4.2,4.2c0,2,1.3,3.6,3.1,4.1v4.1h-5.1c-0.6,0-1.1,0.5-1.1,1.1v11.2h-3.9
	v-5c0-0.6-0.5-1.1-1.1-1.1c-0.6,0-1.1,0.5-1.1,1.1v5h-3.9V11.8c0,0,0,0,0,0c0-5.3-4.3-9.7-9.7-9.7c-5,0-9.2,3.8-9.6,8.7
	c-1-0.3-2-0.4-3-0.4c-6,0-10.9,4.9-10.9,10.9c0,0.9,0.1,1.8,0.3,2.7c-0.8,0.4-1.5,0.9-2.2,1.5c-0.5,0.4-0.5,1.1-0.1,1.6
	c0.2,0.3,0.6,0.4,0.9,0.4c0.3,0,0.5-0.1,0.7-0.3c0.7-0.6,1.5-1.1,2.3-1.5h5.2l2.7,4.8c-1,0.9-1.7,2.2-1.7,3.7c0,2.7,2.2,4.9,4.9,4.9
	c2.3,0,4.3-1.6,4.8-3.8H45V36c0,0,0,0,0,0c0,0,0,0,0,0v24.8c0,0,0,0,0,0s0,0,0,0v3h-6.8l-2.9-5c0.9-0.9,1.4-2.1,1.4-3.4
	c0-2.7-2.2-4.9-4.9-4.9c-0.4,0-0.7,0-1.1,0.1l-3.1-5.3c-0.2-0.4-0.6-0.6-1-0.6H13.1c-0.9-0.9-1.7-1.8-2.2-3c-0.3-0.6-1-0.8-1.5-0.5
	c-0.6,0.3-0.8,1-0.5,1.5c0.5,1,1.2,1.9,1.9,2.7c-4.7,2.9-7.6,8-7.6,13.6c0,6.2,3.6,11.8,9.1,14.4c-0.1,0.6-0.1,1.1-0.1,1.7
	c0,6.6,4.5,12.2,10.9,13.6c1.4,5.3,6.3,9.1,11.9,9.1c6.8,0,12.3-5.5,12.3-12.3c0,0,0,0,0,0V68.1h3.9v11.2c0,0.6,0.5,1.1,1.1,1.1h5
	v7.2c-1.8,0.5-3.1,2.1-3.1,4.1c0,2.3,1.9,4.2,4.2,4.2s4.2-1.9,4.2-4.2c0-1.9-1.3-3.6-3.1-4.1v-8.3c0-0.6-0.5-1.1-1.1-1.1h-5V68.1
	h3.9v5.2c0,0.6,0.5,1.1,1.1,1.1s1.1-0.5,1.1-1.1v-5.2h3.9v5c0,0.6,0.5,1.1,1.1,1.1h5v7.2c-1.8,0.5-3.1,2.1-3.1,4.1
	c0,2.3,1.9,4.2,4.2,4.2c2.3,0,4.2-1.9,4.2-4.2c0-1.9-1.3-3.6-3.1-4.1v-8.4c0-0.6-0.5-1.1-1.1-1.1h-5v-3.9h3.7c1.4,0,2.5-1.1,2.5-2.5
	v-3.9h7V66c-1.8,0.5-3.1,2.1-3.1,4.1c0,2.3,1.9,4.2,4.2,4.2c2.3,0,4.2-1.9,4.2-4.2c0-1.9-1.3-3.6-3.1-4.1v-5.4
	c0-0.6-0.5-1.1-1.1-1.1h-8.1v-3.9h5c0.6,0,1.1-0.5,1.1-1.1s-0.5-1.1-1.1-1.1h-5v-3.9h8.6l5.6,5.7c-0.6,0.7-1,1.7-1,2.7
	c0,2.3,1.9,4.2,4.2,4.2c2.3,0,4.2-1.9,4.2-4.2c0-2.3-1.9-4.2-4.2-4.2c-0.5,0-0.9,0.1-1.4,0.2L82,47.4c-0.2-0.2-0.5-0.3-0.8-0.3h-9.1
	v-3.9H88.6z M92.6,40c1.1,0,1.9,0.9,1.9,1.9c0,1.1-0.9,1.9-1.9,1.9S90.7,43,90.7,42C90.7,40.9,91.5,40,92.6,40z M74,21.4
	c1.1,0,1.9,0.9,1.9,1.9c0,1.1-0.9,1.9-1.9,1.9s-1.9-0.9-1.9-1.9C72.1,22.3,73,21.4,74,21.4z M62.8,8.1c0-1.1,0.9-1.9,1.9-1.9
	s1.9,0.9,1.9,1.9S65.8,10,64.7,10S62.8,9.1,62.8,8.1z M60.4,91.8c0,1.1-0.9,1.9-1.9,1.9s-1.9-0.9-1.9-1.9s0.9-1.9,1.9-1.9
	S60.4,90.7,60.4,91.8z M72.8,85.6c0,1.1-0.9,1.9-1.9,1.9c-1.1,0-1.9-0.9-1.9-1.9s0.9-1.9,1.9-1.9C72,83.6,72.8,84.5,72.8,85.6z
	 M82.1,70.1c0,1.1-0.9,1.9-1.9,1.9s-1.9-0.9-1.9-1.9s0.9-1.9,1.9-1.9S82.1,69,82.1,70.1z M91.4,57.7c0,1.1-0.9,1.9-1.9,1.9
	c-1.1,0-1.9-0.9-1.9-1.9c0-1.1,0.9-1.9,1.9-1.9C90.6,55.7,91.4,56.6,91.4,57.7z M27.3,36.9c-1.5,0-2.7-1.2-2.7-2.7
	c0-1.5,1.2-2.7,2.7-2.7c1.5,0,2.7,1.2,2.7,2.7c0,0,0,0,0,0s0,0,0,0C29.9,35.7,28.7,36.9,27.3,36.9z M32.1,33.1
	c-0.5-2.2-2.5-3.8-4.8-3.8c-0.4,0-0.9,0.1-1.3,0.2L22.9,24c-0.2-0.4-0.6-0.6-1-0.6h-5.3c-0.2-0.7-0.3-1.4-0.3-2.1
	c0-4.8,3.9-8.7,8.7-8.7c0,0,0,0,0,0c1.2,0,2.5,0.3,3.6,0.8c0.4,0.2,0.8,0.1,1.1-0.1c0.3-0.2,0.5-0.6,0.5-1v-0.7
	c0-4.1,3.3-7.4,7.4-7.4c4.1,0,7.4,3.3,7.4,7.4c0,0,0,0,0,0v7.5h-3c-0.5-2.2-2.5-3.8-4.8-3.8c-2.7,0-4.9,2.2-4.9,4.9
	c0,2.7,2.2,4.9,4.9,4.9c2.3,0,4.3-1.6,4.8-3.8h3v8.2c0,0,0,0,0,0c0,0,0,0,0,0v3.3H32.1z M39.8,20.4c0,1.5-1.2,2.7-2.7,2.7
	s-2.7-1.2-2.7-2.7s1.2-2.7,2.7-2.7S39.8,19,39.8,20.4z M34.4,55.4c0,1.5-1.2,2.7-2.7,2.7s-2.7-1.2-2.7-2.7s1.2-2.7,2.7-2.7
	S34.4,53.9,34.4,55.4z M35,95.6c-4.8,0-8.9-3.4-9.8-8c-0.1-0.5-0.5-0.8-0.9-0.9c-5.6-0.9-9.7-5.7-9.7-11.5c0-0.4,0-0.8,0.1-1.2h14.2
	l2.7,4.6c-1.1,0.9-1.8,2.3-1.8,3.8c0,2.7,2.2,4.9,4.9,4.9c2.7,0,4.9-2.2,4.9-4.9s-2.2-4.9-4.9-4.9c-0.4,0-0.7,0-1.1,0.1l-3.1-5.3
	c-0.2-0.4-0.6-0.6-1-0.6H13.8c-4.7-2-7.9-6.4-8.3-11.5h5.4c0.5,2.2,2.5,3.8,4.8,3.8c2.7,0,4.9-2.2,4.9-4.9s-2.2-4.9-4.9-4.9
	c-2.3,0-4.3,1.6-4.8,3.8H5.5c0.4-4.7,3.1-8.9,7.4-11h13l2.7,4.6c-1.1,0.9-1.8,2.3-1.8,3.8c0,2.7,2.2,4.9,4.9,4.9
	c0.6,0,1.1-0.1,1.6-0.3l3.2,5.5c0.2,0.4,0.6,0.6,1,0.6H45V67c0,0,0,0,0,0c0,0,0,0,0,0v18.6c0,0,0,0,0,0C45,91.1,40.5,95.6,35,95.6z
	 M34.6,79.8c1.5,0,2.7,1.2,2.7,2.7s-1.2,2.7-2.7,2.7c-1.5,0-2.7-1.2-2.7-2.7S33.1,79.8,34.6,79.8z M13.1,59.1c0-1.5,1.2-2.7,2.7-2.7
	s2.7,1.2,2.7,2.7c0,1.5-1.2,2.7-2.7,2.7S13.1,60.5,13.1,59.1z M69.8,65.6c0,0.1-0.1,0.3-0.3,0.3H47.3v-3.9h16.1
	c1.4,0,2.5-1.1,2.5-2.5V48.2c0-0.6-0.5-1.1-1.1-1.1c-0.6,0-1.1,0.5-1.1,1.1v11.2c0,0.1-0.1,0.3-0.3,0.3H47.3V37.1h16.1
	c0.1,0,0.3,0.1,0.3,0.3v4.3c0,0.6,0.5,1.1,1.1,1.1s1.1-0.5,1.1-1.1v-4.3c0-1.4-1.1-2.5-2.5-2.5H47.3v-3.9h22.3
	c0.1,0,0.3,0.1,0.3,0.3V65.6z M7.4,33.7c0-0.6,0.5-1.1,1.1-1.1h0c0.6,0,1.1,0.5,1.1,1.1c0,0.6-0.5,1.1-1.1,1.1S7.4,34.4,7.4,33.7z"
	/>
</svg>
