<?xml version="1.0" encoding="utf-8"?>
<!-- Generator: Adobe Illustrator 27.9.0, SVG Export Plug-In . SVG Version: 6.00 Build 0)  -->
<svg version="1.1" id="Layer_1" xmlns="http://www.w3.org/2000/svg" xmlns:xlink="http://www.w3.org/1999/xlink" x="0px" y="0px"
	 viewBox="0 0 100 100" style="enable-background:new 0 0 100 100;" xml:space="preserve">
<path d="M40.3,30.53c-0.23,0-0.46-0.07-0.65-0.21l-12.61-9.14c-3.97-2.87-4.86-8.44-1.98-12.41c1.39-1.92,3.45-3.19,5.79-3.56
	c2-0.32,4.01,0.04,5.75,1.02c1.35-1.48,3.14-2.45,5.15-2.77c2.34-0.37,4.69,0.19,6.61,1.58c3.97,2.87,4.86,8.43,1.99,12.4
	l-0.01,0.02L41.2,30.07C40.98,30.37,40.64,30.53,40.3,30.53z M32.26,7.32c-0.35,0-0.71,0.03-1.07,0.09
	c-1.76,0.28-3.3,1.23-4.34,2.67c-2.15,2.97-1.49,7.14,1.49,9.3l11.71,8.48l8.47-11.7c0-0.01,0.01-0.01,0.01-0.02
	c2.15-2.97,1.49-7.14-1.49-9.3c-1.44-1.04-3.2-1.46-4.96-1.18c-1.76,0.28-3.3,1.23-4.34,2.67l-0.02,0.03
	C37.56,8.6,37.29,8.76,37,8.81c-0.29,0.05-0.59-0.03-0.83-0.2l-0.03-0.02C35,7.76,33.65,7.32,32.26,7.32z M30.49,17.49
	c0.42-0.45,0.39-1.16-0.06-1.57c-0.98-0.91-1.12-2.41-0.34-3.49c0.33-0.45,0.77-0.78,1.29-0.95c0.58-0.2,0.9-0.83,0.7-1.41
	c-0.2-0.58-0.83-0.9-1.41-0.7c-0.96,0.32-1.79,0.93-2.39,1.76c-1.44,1.99-1.17,4.75,0.62,6.43c0.21,0.2,0.49,0.3,0.76,0.3
	C29.97,17.85,30.27,17.73,30.49,17.49z M46.08,62.21l10.63-24.97c0.65-1.53,0.67-3.22,0.05-4.77c-0.62-1.54-1.81-2.75-3.34-3.41
	c-3.16-1.35-6.83,0.13-8.17,3.29L34.61,57.33c-0.24,0.57,0.02,1.22,0.59,1.46c0.57,0.24,1.22-0.02,1.46-0.59L47.3,33.23
	c0.86-2.03,3.22-2.98,5.25-2.11c0.98,0.42,1.75,1.2,2.14,2.19c0.4,0.99,0.39,2.08-0.03,3.06L44.03,61.33
	c-0.24,0.57,0.02,1.22,0.59,1.46c0.14,0.06,0.29,0.09,0.44,0.09C45.49,62.89,45.9,62.63,46.08,62.21z M55.49,66.22L60.27,55
	c0.65-1.53,0.67-3.23,0.05-4.77c-0.62-1.54-1.81-2.75-3.34-3.41c-1.53-0.65-3.23-0.67-4.77-0.05c-1.54,0.62-2.75,1.81-3.4,3.34
	l-4.78,11.22c-0.24,0.57,0.02,1.22,0.59,1.46c0.57,0.24,1.22-0.02,1.46-0.59l4.78-11.22c0.42-0.98,1.2-1.74,2.19-2.14
	c0.99-0.4,2.08-0.39,3.06,0.03c0.98,0.42,1.74,1.19,2.14,2.19c0.4,0.99,0.39,2.08-0.03,3.06l-4.78,11.22
	c-0.24,0.57,0.02,1.22,0.59,1.46c0.14,0.06,0.29,0.09,0.44,0.09C54.9,66.89,55.31,66.64,55.49,66.22z M64.91,70.22l3.2-7.51
	c0.65-1.53,0.67-3.23,0.05-4.77c-0.62-1.54-1.81-2.75-3.34-3.4c-3.16-1.35-6.83,0.13-8.17,3.29l-3.2,7.51
	c-0.24,0.57,0.02,1.22,0.59,1.46c0.57,0.24,1.22-0.02,1.46-0.59l3.2-7.51c0.86-2.03,3.22-2.98,5.25-2.11
	c0.98,0.42,1.75,1.2,2.15,2.19c0.4,0.99,0.39,2.08-0.03,3.06l-3.2,7.51c-0.24,0.57,0.02,1.22,0.59,1.46
	c0.14,0.06,0.29,0.09,0.44,0.09C64.31,70.9,64.73,70.65,64.91,70.22z M72.87,77.64l3.27-7.68c0.65-1.53,0.67-3.23,0.05-4.77
	c-0.62-1.54-1.81-2.75-3.34-3.41c-1.53-0.65-3.22-0.67-4.77-0.05c-1.54,0.62-2.75,1.81-3.4,3.34l-1.82,4.27
	c-0.24,0.57,0.02,1.22,0.59,1.46c0.57,0.24,1.22-0.02,1.46-0.59l1.82-4.27c0.42-0.98,1.2-1.74,2.19-2.14
	c0.99-0.4,2.08-0.39,3.06,0.03c0.98,0.42,1.74,1.2,2.14,2.19c0.4,0.99,0.39,2.08-0.03,3.06l-3.27,7.68
	c-0.24,0.57,0.02,1.22,0.59,1.46c0.14,0.06,0.29,0.09,0.44,0.09C72.28,78.32,72.69,78.06,72.87,77.64z M28.76,44.01
	c0.51-0.34,0.65-1.03,0.31-1.54l-0.47-0.7l-0.37-0.62c-0.93-1.98-0.1-4.35,1.87-5.31c0.85-0.41,1.82-0.51,2.74-0.28
	c0.23,0.06,0.45,0.14,0.67,0.24c0.01,0.01,0.03,0.01,0.04,0.02v0c0.57,0.27,1.08,0.67,1.46,1.17c0.38,0.49,1.07,0.58,1.56,0.2
	c0.49-0.37,0.58-1.07,0.2-1.56c-0.59-0.77-1.36-1.39-2.24-1.81c-0.02-0.01-0.03-0.02-0.05-0.02h0c-0.35-0.17-0.72-0.3-1.09-0.39
	c-1.42-0.36-2.94-0.21-4.26,0.43c-3.09,1.5-4.39,5.23-2.89,8.33c0.01,0.03,0.03,0.06,0.04,0.08l0.41,0.69
	c0.01,0.02,0.02,0.03,0.03,0.05l0.48,0.72c0.21,0.32,0.57,0.5,0.93,0.5C28.36,44.2,28.57,44.14,28.76,44.01z M41.66,45.71
	c0.56-0.25,0.81-0.91,0.56-1.47c-1.4-3.14-3.24-6.05-5.45-8.63c-0.01-0.01-0.02-0.03-0.03-0.04c-0.4-0.47-1.11-0.52-1.57-0.11
	c-0.44,0.39-0.51,1.05-0.16,1.51c0.02,0.02,0.04,0.05,0.05,0.07c2.09,2.43,3.82,5.16,5.13,8.11c0.18,0.42,0.59,0.66,1.02,0.66
	C41.36,45.81,41.51,45.78,41.66,45.71z M34.58,63.02c1.33-7.38-0.7-14.9-5.58-20.63c-0.4-0.47-1.1-0.53-1.57-0.13
	c-0.47,0.4-0.53,1.1-0.13,1.57c4.44,5.22,6.3,12.07,5.08,18.79c-0.11,0.61,0.29,1.18,0.9,1.29c0.07,0.01,0.13,0.02,0.2,0.02
	C34.02,63.93,34.49,63.56,34.58,63.02z M69.16,86.35l5.16-12.11c0.24-0.57-0.02-1.22-0.59-1.46c-0.57-0.24-1.22,0.02-1.46,0.59
	l-5.16,12.11c-3.18,7.46-11.83,10.95-19.3,7.77l-8.54-3.63c-7.46-3.18-10.95-11.83-7.77-19.3l5.14-12.07
	c0.26-0.55,0.04-1.2-0.51-1.48c-0.27-0.14-0.59-0.16-0.88-0.05c-0.29,0.11-0.52,0.33-0.64,0.61l-5.16,12.11
	C25.8,78.03,29.81,88,38.41,91.66l8.54,3.63c2.16,0.92,4.4,1.35,6.61,1.35C60.14,96.65,66.42,92.78,69.16,86.35z M64.07,86.47
	c0.33-0.52,0.18-1.21-0.33-1.54c-0.52-0.33-1.21-0.18-1.54,0.33c-1.87,2.9-5.17,4.7-8.63,4.7c-0.5,0-1.01-0.04-1.5-0.11
	c-0.61-0.09-1.18,0.33-1.27,0.94c-0.09,0.61,0.33,1.18,0.94,1.27c0.6,0.09,1.22,0.14,1.83,0.14C57.84,92.19,61.76,90.05,64.07,86.47
	z"/>
</svg>
