<?xml version="1.0" encoding="utf-8"?>
<!-- Generator: Adobe Illustrator 28.1.0, SVG Export Plug-In . SVG Version: 6.00 Build 0)  -->
<svg version="1.1" id="Layer_1" xmlns="http://www.w3.org/2000/svg" xmlns:xlink="http://www.w3.org/1999/xlink" x="0px" y="0px"
	 viewBox="0 0 512 512" style="enable-background:new 0 0 512 512;" xml:space="preserve">
<style type="text/css">
	.st0{fill:none;stroke:#000000;stroke-width:10;stroke-linecap:round;stroke-linejoin:round;stroke-miterlimit:10;}
</style>
<path class="st0" d="M134.2,156l8.8,12c1.2,1.6,3.5,1.6,4.7,0l18.6-25.2"/>
<path class="st0" d="M134.2,279l8.8,12c0.9,1.3,2.8,1.6,4.1,0.6c0.2-0.2,0.5-0.4,0.6-0.6l18.6-25.2"/>
<path class="st0" d="M134.2,396.8l8.8,12c1,1.3,2.8,1.6,4.1,0.6c0.2-0.2,0.5-0.4,0.6-0.6l18.6-25.2"/>
<path class="st0" d="M228,140.4h92.7"/>
<path class="st0" d="M228,171.7h46.4"/>
<path class="st0" d="M228,260.8h62.2"/>
<path class="st0" d="M228,292.1h46.4"/>
<path class="st0" d="M418.6,188.9l-147.6,233"/>
<path class="st0" d="M297,78.4V48.7c0-7.1-5.8-12.9-12.9-12.9h-21.5c-3,0-5.4-2.4-5.4-5.4c0,0,0,0,0,0v-9.7
	c0-7.3-5.9-13.2-13.2-13.2h-51.6c-7.3,0-13.2,5.9-13.2,13.2v9.7c0,3-2.4,5.4-5.4,5.4c0,0,0,0,0,0h-21.5c-7.1,0-12.9,5.8-12.9,12.9
	v29.7"/>
<path class="st0" d="M109.7,184.9v-57.8c0-6.4,5.2-11.6,11.6-11.6h57.8c6.4,0,11.6,5.2,11.6,11.6v57.8c0,6.4-5.2,11.6-11.6,11.6
	h-57.8C114.9,196.5,109.7,191.3,109.7,184.9z"/>
<path class="st0" d="M109.7,305.3v-57.8c0-6.4,5.2-11.6,11.6-11.6h57.8c6.4,0,11.6,5.2,11.6,11.6v57.8c0,6.4-5.2,11.6-11.6,11.6
	h-57.8C114.9,316.9,109.7,311.7,109.7,305.3z"/>
<path class="st0" d="M109.7,425.7V368c0-6.4,5.2-11.6,11.6-11.6h57.8c6.4,0,11.6,5.2,11.6,11.6v57.8c0,6.4-5.2,11.6-11.6,11.6h-57.8
	C114.9,437.3,109.7,432.2,109.7,425.7z"/>
<path class="st0" d="M364.8,223.5V85c0-3.6-2.9-6.6-6.6-6.6H78.1c-3.6,0-6.6,2.9-6.6,6.6c0,0,0,0,0,0v383c0,3.6,2.9,6.6,6.6,6.6l0,0
	h280.2c3.6,0,6.6-2.9,6.6-6.6V324.2"/>
<path class="st0" d="M139.3,48.7c0-0.1,0-0.2,0-0.3H59.9c-10.1,0-18.4,8.2-18.4,18.4v419.4c0,10.1,8.2,18.4,18.4,18.4h316.6
	c10.1,0,18.4-8.2,18.4-18.4V317.9"/>
<path class="st0" d="M394.8,131.7v-65c0-10.1-8.2-18.4-18.4-18.4H297c0,0.1,0,0.2,0,0.3"/>
<path class="st0" d="M287.6,440.4c5-4,9.2-8.8,12.6-14.1l141.1-222.9"/>
<path class="st0" d="M266.4,379l-11.7,18.4c-3.4,5.4-5.9,11.3-7.4,17.5"/>
<path class="st0" d="M395.8,174.5L285.1,349.4"/>
<path class="st0" d="M456.5,179.4L456.5,179.4l10.9-17.3c5.9-9.3,3.1-21.6-6.2-27.4l-11.9-7.5c-9.3-5.9-21.6-3.1-27.4,6.2L411,150.5
	"/>
<path class="st0" d="M395.8,174.5l45.5,28.8l15.2-24L411,150.5L395.8,174.5z"/>
<path class="st0" d="M287.6,440.4l-40.2,32.4c-5.7,4.6-13.9-0.6-12.2-7.7l12.1-50.2C264.5,415.1,280.1,425,287.6,440.4z"/>
</svg>
