<?xml version="1.0" encoding="utf-8"?>
<!-- Generator: Adobe Illustrator 28.1.0, SVG Export Plug-In . SVG Version: 6.00 Build 0)  -->
<svg version="1.1" id="Layer_1" xmlns="http://www.w3.org/2000/svg" xmlns:xlink="http://www.w3.org/1999/xlink" x="0px" y="0px"
	 viewBox="0 0 512 512" style="enable-background:new 0 0 512 512;" xml:space="preserve">
<style type="text/css">
	.st0{fill:none;stroke:#000000;stroke-width:10;stroke-linecap:round;stroke-linejoin:round;stroke-miterlimit:10;}
</style>
<path class="st0" d="M311.9,400.8v69.9c0,18.7-15.1,33.8-33.8,33.8H52c-18.7,0-33.8-15.1-33.8-33.8V41.3C18.1,22.7,33.3,7.5,52,7.5
	h226.1c18.7,0,33.8,15.1,33.8,33.8v79"/>
<path class="st0" d="M311.9,443.2H18.1V61h293.8"/>
<path class="st0" d="M205.4,443.2v14.9c0,8.7-7.1,15.7-15.7,15.7h-49.3c-8.7,0-15.7-7-15.7-15.7v-14.9H205.4z"/>
<path class="st0" d="M146.9,33.5h29.3"/>
<path class="st0" d="M54.9,217.9h32.9"/>
<path class="st0" d="M113,257.8h-58"/>
<line class="st0" x1="124.8" y1="299.6" x2="54.9" y2="299.6"/>
<path class="st0" d="M124.8,299.6c13,20,35.6,33.3,61.3,33.3c40.3,0,73.1-32.7,73.1-73c0-40.4-32.7-73.1-73.1-73.1
	c-39.7,0-72,31.6-73,71.1"/>
<path class="st0" d="M201.5,227.7c0,0-8.3-7.6-21-3.8c-11.7,3.5-14.6,19.5-6.6,25.7c4.6,3.6,11.4,6.5,20.7,9.8
	c20.7,7.3,13,36.5-8,36.6c-8.2,0.1-12.1-0.5-19.3-5.2"/>
<path class="st0" d="M186.6,296.1v10.7"/>
<path class="st0" d="M186.6,213v9.9"/>
<path class="st0" d="M493.9,259.6V156.1H186.6v30.7"/>
<path class="st0" d="M186.6,332.9v19c0,7.3,5.9,13.2,13.2,13.2h281c7.3,0,13.2-5.9,13.2-13.2v-55.4"/>
<path class="st0" d="M493.9,156.1H186.6v-22.6c0-7.3,5.9-13.2,13.2-13.2h281c7.3,0,13.2,5.9,13.2,13.2V156.1z"/>
<path class="st0" d="M311.9,186.8h56.9"/>
<path class="st0" d="M430.4,263.3H323.6c-6.5,0-11.7-5.2-11.7-11.7v-17.8c0-6.5,5.2-11.7,11.7-11.7h106.8c6.5,0,11.7,5.2,11.7,11.7
	v17.8C442.1,258,436.9,263.3,430.4,263.3z"/>
<path class="st0" d="M430.4,332.9H323.6c-6.5,0-11.7-5.2-11.7-11.7v-17.8c0-6.5,5.2-11.7,11.7-11.7h106.8c6.5,0,11.7,5.2,11.7,11.7
	v17.8C442.1,327.6,436.9,332.9,430.4,332.9z"/>
<path class="st0" d="M442.1,120.3v35.8"/>
</svg>
