<?xml version="1.0" encoding="utf-8"?>
<!-- Generator: Adobe Illustrator 28.1.0, SVG Export Plug-In . SVG Version: 6.00 Build 0)  -->
<svg version="1.1" id="Layer_1" xmlns="http://www.w3.org/2000/svg" xmlns:xlink="http://www.w3.org/1999/xlink" x="0px" y="0px"
	 viewBox="0 0 512 512" style="enable-background:new 0 0 512 512;" xml:space="preserve">
<style type="text/css">
	.st0{fill:none;stroke:#000000;stroke-width:10;stroke-linecap:round;stroke-linejoin:round;stroke-miterlimit:10;}
</style>
<path class="st0" d="M457.3,7.5h27c11.1,0,20.2,9,20.2,20.2v44.4H7.5V27.7c0-11.1,9-20.2,20.2-20.2h394.6"/>
<line class="st0" x1="47.9" y1="39.9" x2="47.9" y2="39.9"/>
<line class="st0" x1="88.3" y1="39.9" x2="88.3" y2="39.9"/>
<line class="st0" x1="128.7" y1="39.9" x2="128.7" y2="39.9"/>
<path class="st0" d="M89.5,504.5h394.8c11.1,0,20.2-9,20.2-20.2V72.2H7.5v412.1c0,11.1,9,20.2,20.2,20.2h26.8"/>
<path class="st0" d="M439.8,308.2v-39.7c0-4.4-2.9-8.3-7.1-9.6l-14.6-4.6c-4.3-20.5-12.4-39.5-23.5-56.5l7.1-13.6
	c2.1-3.9,1.3-8.7-1.8-11.8l-28.1-28.1c-3.1-3.1-7.9-3.9-11.8-1.8l-13.6,7.1c-16.9-11.1-36-19.2-56.5-23.5l-4.6-14.6
	c-1.3-4.2-5.2-7.1-9.6-7.1h-39.7c-4.4,0-8.3,2.9-9.6,7.1l-4.6,14.6c-20.5,4.3-39.5,12.4-56.5,23.5l-13.6-7.1
	c-3.9-2.1-8.7-1.3-11.8,1.8L112,172.4c-3.1,3.1-3.9,7.9-1.8,11.8l7.1,13.6c-11.1,16.9-19.2,36-23.5,56.5l-14.6,4.6
	c-4.2,1.3-7.1,5.2-7.1,9.6v39.7c0,4.4,2.9,8.3,7.1,9.6l14.6,4.6c4.3,20.5,12.4,39.5,23.5,56.5l-7.1,13.6c-2.1,3.9-1.3,8.7,1.8,11.8
	l28.1,28.1c3.1,3.1,7.9,3.9,11.8,1.8l13.6-7.1c16.9,11.1,36,19.2,56.5,23.5l4.6,14.6c1.3,4.2,5.2,7.1,9.6,7.1h39.7
	c4.4,0,8.3-2.9,9.6-7.1l4.6-14.6c20.5-4.3,39.5-12.4,56.5-23.5l13.6,7.1c3.9,2.1,8.7,1.3,11.8-1.8l28.1-28.1
	c3.1-3.1,3.9-7.9,1.8-11.8l-7.1-13.6c11.1-16.9,19.2-36,23.5-56.5l14.6-4.6C436.9,316.5,439.8,312.6,439.8,308.2L439.8,308.2z"/>
<path class="st0" d="M168.3,187.9c23.4-20.5,54.1-32.9,87.7-32.9c73.6,0,133.3,59.7,133.3,133.4c0,73.6-59.7,133.3-133.3,133.3
	S122.7,362,122.7,288.3c0-27.5,8.3-53,22.6-74.2"/>
</svg>
